#N canvas 37 270 1063 412 10;
#X obj 21 146 table scales;
#X msg 23 173 \; scales;
#X obj 247 197 tabread scales;
#X floatatom 252 227 5 0 0 0 - - -;
#X floatatom 249 153 5 0 0 0 - - -;
#X obj 280 134 hradio 15 1 0 15 empty empty empty 0 -8 0 10 -262144
-1 -1 6;
#X floatatom 247 276 5 0 0 0 - - -;
#X obj 529 42 tgl 15 0 empty empty empty 17 7 0 10 -262144 -1 -1 0
1;
#X obj 272 90 hsl 128 15 0 15 0 0 empty empty empty -2 -8 0 10 -262144
-1 -1 5080 1;
#X obj 533 73 metro 100;
#X obj 453 18 inlet;
#N canvas 526 326 867 494 arpeggio 0;
#X obj 59 406 table arpeggio;
#X obj 187 299 tabread arpeggio;
#X floatatom 186 346 5 0 0 0 - - -;
#X floatatom 176 277 5 0 0 0 - - -;
#X obj 187 378 outlet;
#X obj 175 255 hradio 15 1 0 17 empty empty empty 0 -8 0 10 -262144
-1 -1 0;
#X obj 179 227 hsl 128 15 0 16 0 0 empty empty empty -2 -8 0 10 -262144
-1 -1 0 1;
#X msg 63 27 \; arpeggio 0 0 2 4 7 9 11 13 14 13 11 9 7 4 2;
#X msg 64 151 \; arpeggio 0 0 2 4 7 4 2 4 7 9 12 13 12 9 7 4;
#X msg 392 31 \; arpeggio 0 0 2 4 7 4 2 4 7 9 11 14 11 9 7 4;
#X msg 396 76 \; arpeggio 0 0 2 4 6 7 9 11 13 14 13 11 9 7 6 4 2 0
;
#X msg 60 75 \; arpeggio 0 0 2 0 2 4 2 4 7 4 7 9 7 9 11 14 11 9;
#X msg 63 114 \; arpeggio 0 0 2 4 7 4 2 4 7 9 11 13 11 9 7 4 2 0;
#X floatatom 420 197 5 0 0 0 - - -;
#X obj 7 10 loadbang;
#X connect 1 0 2 0;
#X connect 2 0 4 0;
#X connect 3 0 1 0;
#X connect 5 0 3 0;
#X connect 6 0 5 0;
#X connect 13 0 6 0;
#X connect 14 0 7 0;
#X restore 157 48 pd arpeggio;
#N canvas 0 616 1346 298 tableValues 0;
#X text 338 21 major;
#X text 375 242 pentatonic;
#X text 359 182 mixo;
#X text 388 55 dorian;
#X text 330 105 lydian-dominant (jazzy);
#X text 369 150 lydian;
#X text 1024 56 middle-east-like minor;
#X text 1034 99 harmonic minor;
#X text 1072 171 whole-tones scale;
#X text 1169 14 aeolian;
#X msg 24 57 \; scales 0 2 4 5 7 9 11 12 14 16 17 19 21 23 24 26;
#X msg 5 18 \; scales 0 2 4 6 7 9 11 13 14 16 18 19 21 23 25 26;
#X msg 22 97 \; scales 0 2 4 6 8 9 11 12 14 16 18 20 21 23 24 26;
#X msg 20 138 \; scales 0 2 4 6 8 9 11 13 14 16 18 20 21 23 25 26;
#X msg 26 179 \; scales 0 2 4 6 7 9 11 12 14 16 18 19 21 23 24 26;
#X msg 21 230 \; scales 0 2 4 7 9 11 14 16 19 21 23 26 28 31 33 35
;
#X msg 671 12 \; scales 0 2 4 5 7 9 10 12 14 16 17 19 21 22 24 26;
#X msg 668 52 \; scales 0 2 4 5 7 8 11 12 14 16 17 19 20 23 24 26;
#X msg 673 86 \; scales 0 2 4 5 7 9 10 13 14 16 17 19 21 22 25 26;
#X msg 657 127 \; scales 0 2 3 4 5 6 7 8 9 10 11 12 13 14 15 16 17
18 19 20 21;
#X text 1057 130 chromatic;
#X msg 663 166 \; scales 0 2 4 6 8 10 12 14 16 18 20 22 24 26 28 30
;
#X obj 444 22 loadbang;
#X connect 22 0 11 0;
#X restore 20 122 pd tableValues;
#X obj 453 109 pip_randomnorepeat 14;
#X obj 251 252 + 48;
#X floatatom 316 234 5 0 0 0 - - -;
#X floatatom 311 283 5 0 0 0 - - -;
#X floatatom 390 229 5 0 0 0 - - -;
#X floatatom 385 278 5 0 0 0 - - -;
#X obj 315 259 + 24;
#X obj 389 254 + 12;
#X text 139 254 transposition;
#X text 642 127 Some scales can be found in "tableValues". then have
fun with playing them!;
#X text 980 380 pip;
#X text 235 50 arpeggio machine;
#X obj 246 340 osc~;
#X obj 246 310 mtof;
#X obj 308 312 mtof;
#X obj 385 313 mtof;
#X obj 302 388 dac~;
#X obj 303 364 *~ 0.3;
#X obj 311 341 osc~;
#X obj 388 340 osc~;
#X connect 2 0 3 0;
#X connect 2 0 15 0;
#X connect 2 0 17 0;
#X connect 3 0 14 0;
#X connect 4 0 2 0;
#X connect 5 0 4 0;
#X connect 6 0 26 0;
#X connect 7 0 9 0;
#X connect 8 0 5 0;
#X connect 9 0 13 0;
#X connect 10 0 13 0;
#X connect 11 0 5 0;
#X connect 13 0 8 0;
#X connect 14 0 6 0;
#X connect 15 0 19 0;
#X connect 16 0 27 0;
#X connect 17 0 20 0;
#X connect 18 0 28 0;
#X connect 19 0 16 0;
#X connect 20 0 18 0;
#X connect 25 0 30 0;
#X connect 26 0 25 0;
#X connect 27 0 31 0;
#X connect 28 0 32 0;
#X connect 30 0 29 0;
#X connect 30 0 29 1;
#X connect 31 0 30 0;
#X connect 32 0 30 0;
