#N canvas 261 347 714 172 10;
#X msg 103 102 \;;
#X obj 146 57 netreceive 3200;
#X text 248 57 This is needed for PD to communicate with Unity using
the Kalimba plugin.;
#X text 143 104 This shows received messages from Unity.;
#X text 236 6 KALIMBA;
#X text 559 148 pip;
#X obj 103 129 outlet;
#X connect 0 0 6 0;
#X connect 1 0 0 0;
