#N canvas 244 241 1171 416 10;
#X obj 625 271 outlet~ L;
#X obj 685 271 outlet~ R;
#X obj 45 182 vsl 15 128 0 0.7 0 0 vol_1 volstart Ch.1 20 120 0 20
-257985 -1 -1 0 1;
#X obj 177 181 vsl 15 128 0 0.7 0 0 vol_2 volstart Ch.2 20 120 0 20
-257985 -1 -1 0 1;
#X obj 1003 174 loadbang;
#X obj 91 79 inlet~;
#X obj 182 79 inlet~;
#X obj 68 202 vsl 15 50 0 0.7 0 0 sendvol_1 sendstart Delay 0 -9 0
10 -4034 -1 -1 0 1;
#X obj 366 79 inlet~;
#X obj 443 79 inlet~;
#X obj 205 201 vsl 15 50 0 0.7 0 0 sendvol_2 sendstart Delay 0 -9 0
10 -4034 -1 -1 0 1;
#X msg 1026 205 0;
#X obj 645 78 inlet~;
#X obj 705 78 inlet~;
#X obj 314 180 vsl 15 128 0 0.7 0 0 vol_3 volstart Ch.3 20 120 0 20
-257985 -1 -1 0 1;
#X obj 342 199 vsl 15 50 0 0.7 0 0 sendvol_3 sendstart Delay 0 -9 0
10 -4034 -1 -1 0 1;
#X msg 972 206 0.7;
#X obj 958 232 s volstart;
#X obj 1026 232 s sendstart;
#X text 959 307 Place effects here;
#X text 957 254 Initial Mixer Settings;
#X floatatom 810 173 5 0 0 1 Delay_time - delaytime;
#X text 44 41 Expandable Mixer with send bus.;
#X text 1071 370 pip;
#N canvas 340 520 679 303 mixer_effects 0;
#X obj 83 146 throw~ revretL;
#X obj 180 145 throw~ revretR;
#X obj 60 56 catch~ revsendL;
#X obj 170 56 catch~ revsendR;
#X floatatom 183 89 5 0 0 1 Delay_Time delaytime -;
#N canvas 1052 515 450 300 delay 0;
#X obj 43 -28 inlet~;
#X obj 46 165 outlet~ L;
#X obj 120 165 outlet~ R;
#X floatatom 66 62 5 0 0 0 - - -;
#X obj 66 42 inlet delaytime;
#X obj 66 84 vd~ delaybuffer;
#X obj 113 109 s~ delayvu;
#X obj 43 19 delwrite~ delaybuffer 2500;
#X connect 0 0 7 0;
#X connect 3 0 5 0;
#X connect 4 0 3 0;
#X connect 5 0 1 0;
#X connect 5 0 2 0;
#X connect 5 0 6 0;
#X restore 104 116 pd delay;
#X text 299 100 comment;
#X text 129 190 Delay;
#X text 428 198 Reverb;
#X obj 377 148 throw~ rev2retL;
#X obj 516 147 throw~ rev2retR;
#X obj 384 57 catch~ rev2sendL;
#X obj 496 57 catch~ rev2sendR;
#X obj 452 97 pip_reverb;
#X connect 2 0 5 0;
#X connect 3 0 5 0;
#X connect 4 0 5 1;
#X connect 5 0 0 0;
#X connect 5 1 1 0;
#X connect 11 0 13 0;
#X connect 12 0 13 1;
#X connect 13 0 9 0;
#X connect 13 1 10 0;
#X restore 958 288 pd mixer_effects;
#X obj 459 179 vsl 15 128 0 0.7 0 0 vol_4 volstart Ch.4 20 120 0 20
-257985 -1 -1 0 1;
#X obj 487 198 vsl 15 50 0 0.7 0 0 sendvol_4 sendstart Delay 0 -9 0
10 -4034 -1 -1 0 1;
#X obj 959 78 inlet~;
#X obj 1012 79 inlet~;
#X obj 530 198 vsl 15 50 0 0.7 0 0 send2vol_4 sendstart Reverb 0 -9
0 10 -262144 -1 -1 0 1;
#X obj 390 199 vsl 15 50 0 0.7 0 0 send2vol_3 sendstart Reverb 0 -9
0 10 -262144 -1 -1 0 1;
#X obj 256 202 vsl 15 50 0 0.7 0 0 send2vol_2 sendstart Reverb 0 -9
0 10 -262144 -1 -1 0 1;
#X obj 113 203 vsl 15 50 0 0.7 0 0 send2vol_1 sendstart Reverb 0 -9
0 10 -262144 -1 -1 0 1;
#X msg 790 196 default;
#X msg 790 265 huge;
#X msg 790 288 huge_noexcursion;
#X msg 790 219 large;
#X msg 790 242 large_noexcursion;
#X obj 790 318 s reverbpresets;
#X obj 786 171 cnv 15 20 20 empty empty empty 20 12 0 14 -4034 -66577
0;
#X text 842 194 Reverb Presets;
#X obj 590 188 vu 15 120 finalVU Final_Output 20 120 1 20 -66577 -1
0 0;
#X text 568 328 comment;
#N canvas 476 518 450 300 outputs 0;
#X obj 106 207 outlet~;
#X obj 230 210 outlet~;
#X obj 202 75 catch~ sumR;
#X obj 91 74 catch~ sumL;
#N canvas 0 22 450 300 returns 0;
#X obj 77 69 catch~ revretL;
#X obj 229 70 catch~ revretR;
#X obj 133 185 outlet~ L;
#X obj 204 186 outlet~ R;
#X obj 120 108 catch~ rev2retL;
#X obj 253 110 catch~ rev2retR;
#X connect 0 0 2 0;
#X connect 1 0 3 0;
#X connect 4 0 2 0;
#X connect 5 0 3 0;
#X restore 99 98 pd returns;
#N canvas 307 572 450 300 vu 0;
#X obj 71 71 env~;
#X obj 72 98 - 100;
#X obj 71 44 inlet~;
#X obj 81 131 s finalVU;
#X connect 0 0 1 0;
#X connect 1 0 3 0;
#X connect 2 0 0 0;
#X restore 156 151 pd vu;
#X connect 2 0 5 0;
#X connect 2 0 1 0;
#X connect 3 0 5 0;
#X connect 3 0 0 0;
#X connect 4 0 5 0;
#X connect 4 0 0 0;
#X connect 4 1 5 0;
#X connect 4 1 1 0;
#X restore 625 242 pd outputs;
#X obj 768 337 cnv 15 100 60 empty empty Effect_Settings 20 12 0 20
-262144 -66577 0;
#X obj 39 115 pip_channel vol_1 sendvol_1 send2vol_1 vu_1;
#X obj 23 190 vu 15 120 vu_1 empty -1 -8 0 10 -66577 -1 0 0;
#X obj 158 190 vu 15 120 vu_2 empty -1 -8 0 10 -66577 -1 0 0;
#X obj 294 189 vu 15 120 vu_3 empty -1 -8 0 10 -66577 -1 0 0;
#X obj 438 187 vu 15 120 vu_4 empty -1 -8 0 10 -66577 -1 0 0;
#X obj 315 116 pip_channel vol_2 sendvol_2 send2vol_2 vu_2;
#X obj 606 115 pip_channel vol_3 sendvol_3 send2vol_3 vu_3;
#X obj 887 113 pip_channel vol_4 sendvol_4 send2vol_4 vu_4;
#X connect 4 0 16 0;
#X connect 4 0 11 0;
#X connect 5 0 45 0;
#X connect 6 0 45 1;
#X connect 8 0 50 0;
#X connect 9 0 50 1;
#X connect 11 0 18 0;
#X connect 12 0 51 0;
#X connect 13 0 51 1;
#X connect 16 0 17 0;
#X connect 27 0 52 0;
#X connect 28 0 52 1;
#X connect 33 0 38 0;
#X connect 34 0 38 0;
#X connect 35 0 38 0;
#X connect 36 0 38 0;
#X connect 37 0 38 0;
#X connect 43 0 0 0;
#X connect 43 1 1 0;
