#N canvas 889 307 271 264 10;
#X obj 54 170 bng 15 250 50 0 empty empty empty 17 7 0 10 -262144 -1
-1;
#X obj 42 88 tgl 15 0 empty empty empty 17 7 0 10 -262144 -1 -1 0 1
;
#X floatatom 147 84 5 0 0 0 - initbpm -;
#X obj 146 48 inlet;
#X obj 42 49 inlet;
#X text 36 24 Trigger;
#X text 143 23 Tempo in BPM;
#X obj 55 198 outlet;
#N canvas 573 530 632 441 metronome 0;
#X obj 168 243 metro;
#X obj 187 177 /;
#X obj 168 88 t b b b;
#X msg 187 144 60000;
#X floatatom 236 144 5 0 0 1 BPM - -;
#X msg 36 241 120;
#X obj 36 213 loadbang;
#X obj 156 46 select 0 1;
#X obj 156 18 r bpmtrigger;
#X msg 117 89 0;
#X obj 36 272 s initbpm;
#X obj 337 70 r bpmvalue;
#X obj 330 129 r initbpm;
#X obj 331 37 inlet;
#X obj 68 24 inlet;
#X obj 165 279 outlet;
#X connect 0 0 15 0;
#X connect 1 0 0 1;
#X connect 2 0 0 0;
#X connect 2 1 3 0;
#X connect 2 2 4 0;
#X connect 3 0 1 0;
#X connect 4 0 1 1;
#X connect 5 0 10 0;
#X connect 6 0 5 0;
#X connect 6 0 9 0;
#X connect 7 0 9 0;
#X connect 7 1 2 0;
#X connect 8 0 7 0;
#X connect 9 0 0 0;
#X connect 11 0 4 0;
#X connect 11 0 2 0;
#X connect 12 0 4 0;
#X connect 13 0 4 0;
#X connect 13 0 2 0;
#X connect 14 0 7 0;
#X restore 54 130 pd metronome;
#X text 212 236 pip;
#X connect 0 0 7 0;
#X connect 1 0 8 0;
#X connect 2 0 8 1;
#X connect 3 0 8 1;
#X connect 4 0 1 0;
#X connect 8 0 0 0;
