#N canvas 0 22 879 385 10;
#X obj 99 107 inlet~;
#X obj 157 107 inlet~;
#X obj 76 338 throw~ sumL;
#X obj 170 338 throw~ sumR;
#X obj 394 222 throw~ revsendL;
#X obj 498 222 throw~ revsendR;
#X obj 414 126 *~;
#X obj 478 127 *~;
#X obj 99 182 *~;
#X obj 157 182 *~;
#X obj 105 134 r \$1;
#X obj 444 75 r \$2;
#X obj 174 300 lop~;
#X obj 91 302 lop~;
#X obj 231 150 vsl 15 50 10 44100 0 0 empty empty empty 0 -9 0 10 -262144
-1 -1 4900 1;
#X obj 229 86 line;
#X msg 291 57 0 150;
#X obj 211 26 bng 15 250 50 0 empty empty empty 17 7 0 10 -262144 -1
-1;
#X obj 291 29 bng 15 250 50 0 empty empty empty 17 7 0 10 -262144 -1
-1;
#X msg 211 52 44100 150;
#X obj 210 5 loadbang;
#X text 498 31 Channel Strip with stereo lowpass filter and one send
line for reverb or other send effects.;
#X text 545 342 pip;
#X connect 0 0 6 0;
#X connect 0 0 8 0;
#X connect 1 0 9 0;
#X connect 1 0 7 0;
#X connect 6 0 4 0;
#X connect 7 0 5 0;
#X connect 8 0 13 0;
#X connect 9 0 12 0;
#X connect 10 0 8 1;
#X connect 10 0 9 1;
#X connect 11 0 6 1;
#X connect 11 0 7 1;
#X connect 12 0 3 0;
#X connect 13 0 2 0;
#X connect 14 0 12 1;
#X connect 14 0 13 1;
#X connect 15 0 14 0;
#X connect 16 0 15 0;
#X connect 17 0 19 0;
#X connect 18 0 16 0;
#X connect 19 0 15 0;
#X connect 20 0 17 0;
