#N canvas 617 250 498 395 10;
#X obj 66 70 gemwin;
#X msg 54 28 create \, 1;
#X obj 182 71 gemhead;
#X obj 182 50 tgl 15 0 empty empty empty 17 7 0 10 -262144 -1 -1 0
1;
#X obj 182 125 pix_film;
#X obj 206 156 unpack f f f;
#X floatatom 206 185 5 0 0 0 - - -;
#X floatatom 243 185 5 0 0 0 - - -;
#X floatatom 279 185 5 0 0 0 - - -;
#X obj 182 224 pix_texture;
#X msg 359 93 auto \$1;
#X obj 359 57 tgl 15 0 empty empty empty 17 7 0 10 -262144 -1 -1 0
1;
#X obj 181 260 rectangle;
#X text 272 68 load file;
#X text 383 56 play;
#X obj 24 6 loadbang;
#X text 40 321 Simple Video Playback;
#X text 432 367 pip;
#X msg 257 92 open 1.mp4;
#X connect 1 0 0 0;
#X connect 2 0 4 0;
#X connect 3 0 2 0;
#X connect 4 0 9 0;
#X connect 4 1 5 0;
#X connect 5 0 6 0;
#X connect 5 1 7 0;
#X connect 5 2 8 0;
#X connect 9 0 12 0;
#X connect 10 0 4 0;
#X connect 11 0 10 0;
#X connect 15 0 1 0;
#X connect 18 0 4 0;
