#N canvas 804 321 422 216 10;
#X obj 71 -71 f;
#X obj 142 -72 + 1;
#X obj 71 -137 inlet;
#X obj 73 16 outlet;
#X msg 182 -105 1;
#X obj 219 -134 inlet;
#X text 257 -133 Reset;
#X text 211 -31 Simple Counter;
#X text 350 54 pip;
#X connect 0 0 1 0;
#X connect 0 0 3 0;
#X connect 1 0 0 1;
#X connect 2 0 0 0;
#X connect 4 0 0 0;
#X connect 5 0 4 0;
