#N canvas 359 22 915 797 10;
#X obj 321 167 mtof;
#X obj 345 386 *~;
#X obj 346 548 outlet~;
#X obj 297 63 inlet;
#X obj 247 92 bng 15 250 50 0 empty shot empty 17 7 0 10 -262144 -1
-1;
#X obj 321 351 *~;
#X floatatom 169 269 5 0 0 0 - - -;
#X obj 169 211 loadbang;
#X obj 169 294 osc~;
#X obj 345 440 *~ 0.4;
#X msg 169 243 1.5;
#X obj 321 212 osc~;
#X obj 199 91 print;
#X obj 456 525 dac~;
#X msg 486 28 60;
#X obj 481 -118 metro 200;
#X obj 478 -147 tgl 15 0 empty empty empty 17 7 0 10 -262144 -1 -1
0 1;
#X floatatom 488 -35 5 0 0 0 - - -;
#X obj 504 -9 sel 1;
#X obj 457 -3 sel 0;
#X obj 567 -14 sel 2;
#X msg 518 27 62;
#X msg 552 27 63;
#X obj 479 -89 counter 3;
#X msg 516 120 \$1;
#X text 494 521 Test DAC~ Object;
#X text 631 10 TEST Sequence;
#X text 171 64 Inlet for Midi Notes;
#X obj 359 212 pip_env_simple;
#X obj 97 138 vsl 15 128 0 5000 0 0 empty empty empty 0 -9 0 10 -262144
-1 -1 500 1;
#X text 202 242 Bit of modulation;
#X text 66 117 Ring Mod;
#X text 98 334 Tiny Modulation Section;
#X text 465 212 Oscillator and Envelope (click to change envelope settings!)
;
#X text 403 438 Global Volume;
#X text 506 -147 Test Synth;
#X obj 418 -120 s off;
#X obj 563 101 r off;
#X text 63 -131 MINI SYNTH - WOLKENSYNTH;
#X text 801 610 pip;
#X obj 394 75 inlet ringmod;
#X connect 0 0 11 0;
#X connect 1 0 9 0;
#X connect 3 0 0 0;
#X connect 3 0 4 0;
#X connect 3 0 12 0;
#X connect 3 0 28 0;
#X connect 5 0 1 0;
#X connect 6 0 8 0;
#X connect 7 0 10 0;
#X connect 8 0 5 1;
#X connect 9 0 2 0;
#X connect 9 0 13 0;
#X connect 9 0 13 1;
#X connect 10 0 6 0;
#X connect 11 0 5 0;
#X connect 14 0 24 0;
#X connect 15 0 23 0;
#X connect 16 0 15 0;
#X connect 16 0 36 0;
#X connect 17 0 19 0;
#X connect 17 0 18 0;
#X connect 17 0 20 0;
#X connect 18 0 21 0;
#X connect 19 0 14 0;
#X connect 20 0 22 0;
#X connect 21 0 24 0;
#X connect 22 0 24 0;
#X connect 23 0 17 0;
#X connect 24 0 0 0;
#X connect 24 0 28 0;
#X connect 28 0 1 1;
#X connect 29 0 6 0;
#X connect 37 0 24 0;
#X connect 40 0 29 0;
