#N canvas 173 365 764 370 10;
#N canvas 786 176 811 786 note 0;
#X floatatom 359 264 5 0 0 0 - - -;
#X obj 124 364 *~;
#X obj 163 319 vline~;
#X obj 364 398 *~;
#X obj 501 302 vline~;
#X obj 358 293 + 0.1;
#X obj 359 328 phasor~;
#X obj 107 291 phasor~;
#N canvas 0 24 450 300 lowpass2 0;
#X obj 150 142 vsl 15 120 10 3000 0 0 empty empty empty 0 -9 0 10 -262144
-1 -1 1871 1;
#X obj 343 124 line;
#X obj 378 69 bng 15 250 50 0 empty empty empty 17 7 0 10 -262144 -1
-1;
#X obj 96 244 outlet~;
#X obj 173 246 outlet~;
#X obj 104 103 inlet~;
#X obj 175 102 inlet~;
#X obj 104 182 lop~;
#X obj 175 180 lop~;
#X obj 305 41 loadbang;
#X floatatom 157 278 5 0 0 0 - - -;
#X msg 378 97 480 200;
#X connect 0 0 7 1;
#X connect 0 0 8 1;
#X connect 0 0 10 0;
#X connect 1 0 0 0;
#X connect 2 0 11 0;
#X connect 5 0 7 0;
#X connect 6 0 8 0;
#X connect 7 0 3 0;
#X connect 8 0 4 0;
#X connect 9 0 2 0;
#X connect 11 0 1 0;
#X restore 29 458 pd lowpass2;
#X obj 99 226 mtof;
#X obj 360 195 mtof;
#N canvas 0 24 450 300 lowpass2 0;
#X obj 150 142 vsl 15 120 10 3000 0 0 empty empty empty 0 -9 0 10 -262144
-1 -1 1950 1;
#X obj 343 124 line;
#X obj 378 69 bng 15 250 50 0 empty empty empty 17 7 0 10 -262144 -1
-1;
#X obj 96 244 outlet~;
#X obj 173 246 outlet~;
#X obj 104 103 inlet~;
#X obj 175 102 inlet~;
#X obj 104 182 lop~;
#X obj 175 180 lop~;
#X obj 305 41 loadbang;
#X floatatom 157 278 5 0 0 0 - - -;
#X msg 377 97 500 200;
#X connect 0 0 7 1;
#X connect 0 0 8 1;
#X connect 0 0 10 0;
#X connect 1 0 0 0;
#X connect 2 0 11 0;
#X connect 5 0 7 0;
#X connect 6 0 8 0;
#X connect 7 0 3 0;
#X connect 8 0 4 0;
#X connect 9 0 2 0;
#X connect 11 0 1 0;
#X restore 349 470 pd lowpass2;
#X obj 162 623 *~;
#X obj 288 634 *~;
#X msg 230 507 0;
#X obj 48 291 osc~;
#X obj 417 214 osc~;
#X obj 61 253 * 2;
#X obj 73 340 *~ 0.4;
#X obj 454 237 *~ 0.4;
#X msg 169 252 0 \, 1 150 \, 0.3 150 5 \, 0 1000 300;
#X msg 496 267 0 \, 1 150 \, 0.3 150 5 \, 0 1000 300;
#X obj 155 707 outlet~ L;
#X obj 322 707 outlet~ R;
#X msg 187 168 \$1;
#X obj 199 127 inlet;
#X msg 185 508 1;
#X obj 182 457 loadbang;
#X floatatom 151 137 5 0 0 0 - - -;
#X connect 0 0 5 0;
#X connect 1 0 8 0;
#X connect 2 0 1 1;
#X connect 3 0 11 0;
#X connect 4 0 3 1;
#X connect 5 0 6 0;
#X connect 6 0 3 0;
#X connect 7 0 1 0;
#X connect 8 0 12 0;
#X connect 9 0 7 0;
#X connect 9 0 17 0;
#X connect 10 0 0 0;
#X connect 10 0 16 0;
#X connect 11 0 13 0;
#X connect 12 0 22 0;
#X connect 13 0 23 0;
#X connect 14 0 13 1;
#X connect 14 0 12 1;
#X connect 15 0 18 0;
#X connect 16 0 19 0;
#X connect 17 0 15 0;
#X connect 18 0 1 0;
#X connect 19 0 3 0;
#X connect 20 0 2 0;
#X connect 21 0 4 0;
#X connect 24 0 9 0;
#X connect 24 0 20 0;
#X connect 24 0 10 0;
#X connect 24 0 21 0;
#X connect 25 0 24 0;
#X connect 26 0 12 1;
#X connect 26 0 13 1;
#X connect 27 0 26 0;
#X connect 28 0 24 0;
#X restore 53 194 pd note 1;
#N canvas 786 176 809 720 note 0;
#X floatatom 359 264 5 0 0 0 - - -;
#X obj 124 364 *~;
#X obj 163 319 vline~;
#X obj 364 398 *~;
#X obj 501 302 vline~;
#X obj 358 293 + 0.1;
#X obj 359 328 phasor~;
#X obj 107 291 phasor~;
#N canvas 0 24 450 300 lowpass2 0;
#X obj 150 142 vsl 15 120 10 3000 0 0 empty empty empty 0 -9 0 10 -262144
-1 -1 1871 1;
#X obj 343 124 line;
#X obj 378 69 bng 15 250 50 0 empty empty empty 17 7 0 10 -262144 -1
-1;
#X obj 96 244 outlet~;
#X obj 173 246 outlet~;
#X obj 104 103 inlet~;
#X obj 175 102 inlet~;
#X obj 104 182 lop~;
#X obj 175 180 lop~;
#X obj 305 41 loadbang;
#X floatatom 157 278 5 0 0 0 - - -;
#X msg 378 97 480 200;
#X connect 0 0 7 1;
#X connect 0 0 8 1;
#X connect 0 0 10 0;
#X connect 1 0 0 0;
#X connect 2 0 11 0;
#X connect 5 0 7 0;
#X connect 6 0 8 0;
#X connect 7 0 3 0;
#X connect 8 0 4 0;
#X connect 9 0 2 0;
#X connect 11 0 1 0;
#X restore 29 458 pd lowpass2;
#X obj 99 226 mtof;
#X obj 360 195 mtof;
#N canvas 0 24 450 300 lowpass2 0;
#X obj 150 142 vsl 15 120 10 3000 0 0 empty empty empty 0 -9 0 10 -262144
-1 -1 1950 1;
#X obj 343 124 line;
#X obj 378 69 bng 15 250 50 0 empty empty empty 17 7 0 10 -262144 -1
-1;
#X obj 96 244 outlet~;
#X obj 173 246 outlet~;
#X obj 104 103 inlet~;
#X obj 175 102 inlet~;
#X obj 104 182 lop~;
#X obj 175 180 lop~;
#X obj 305 41 loadbang;
#X floatatom 157 278 5 0 0 0 - - -;
#X msg 377 97 500 200;
#X connect 0 0 7 1;
#X connect 0 0 8 1;
#X connect 0 0 10 0;
#X connect 1 0 0 0;
#X connect 2 0 11 0;
#X connect 5 0 7 0;
#X connect 6 0 8 0;
#X connect 7 0 3 0;
#X connect 8 0 4 0;
#X connect 9 0 2 0;
#X connect 11 0 1 0;
#X restore 349 470 pd lowpass2;
#X obj 162 623 *~;
#X obj 288 634 *~;
#X msg 230 507 0;
#X obj 48 291 osc~;
#X obj 417 214 osc~;
#X obj 61 253 * 2;
#X obj 73 340 *~ 0.4;
#X obj 454 237 *~ 0.4;
#X msg 169 252 0 \, 1 150 \, 0.3 150 5 \, 0 1000 300;
#X msg 528 62 0 \, 1 3 \, 0.3 50 5 \, 0 450 20;
#X msg 496 267 0 \, 1 150 \, 0.3 150 5 \, 0 1000 300;
#X obj 155 707 outlet~ L;
#X obj 322 707 outlet~ R;
#X msg 187 168 \$1;
#X obj 199 127 inlet;
#X msg 185 508 1;
#X obj 182 457 loadbang;
#X floatatom 151 137 5 0 0 0 - - -;
#X connect 0 0 5 0;
#X connect 1 0 8 0;
#X connect 2 0 1 1;
#X connect 3 0 11 0;
#X connect 4 0 3 1;
#X connect 5 0 6 0;
#X connect 6 0 3 0;
#X connect 7 0 1 0;
#X connect 8 0 12 0;
#X connect 9 0 7 0;
#X connect 9 0 17 0;
#X connect 10 0 0 0;
#X connect 10 0 16 0;
#X connect 11 0 13 0;
#X connect 12 0 23 0;
#X connect 13 0 24 0;
#X connect 14 0 13 1;
#X connect 14 0 12 1;
#X connect 15 0 18 0;
#X connect 16 0 19 0;
#X connect 17 0 15 0;
#X connect 18 0 1 0;
#X connect 19 0 3 0;
#X connect 20 0 2 0;
#X connect 22 0 4 0;
#X connect 25 0 9 0;
#X connect 25 0 20 0;
#X connect 25 0 10 0;
#X connect 25 0 22 0;
#X connect 26 0 25 0;
#X connect 27 0 12 1;
#X connect 27 0 13 1;
#X connect 28 0 27 0;
#X connect 29 0 25 0;
#X restore 163 199 pd note 2;
#N canvas 786 176 809 720 note 0;
#X floatatom 359 264 5 0 0 0 - - -;
#X obj 124 364 *~;
#X obj 163 319 vline~;
#X obj 364 398 *~;
#X obj 501 302 vline~;
#X obj 358 293 + 0.1;
#X obj 359 328 phasor~;
#X obj 107 291 phasor~;
#N canvas 0 24 450 300 lowpass2 0;
#X obj 150 142 vsl 15 120 10 3000 0 0 empty empty empty 0 -9 0 10 -262144
-1 -1 1871 1;
#X obj 343 124 line;
#X obj 378 69 bng 15 250 50 0 empty empty empty 17 7 0 10 -262144 -1
-1;
#X obj 96 244 outlet~;
#X obj 173 246 outlet~;
#X obj 104 103 inlet~;
#X obj 175 102 inlet~;
#X obj 104 182 lop~;
#X obj 175 180 lop~;
#X obj 305 41 loadbang;
#X floatatom 157 278 5 0 0 0 - - -;
#X msg 378 97 480 200;
#X connect 0 0 7 1;
#X connect 0 0 8 1;
#X connect 0 0 10 0;
#X connect 1 0 0 0;
#X connect 2 0 11 0;
#X connect 5 0 7 0;
#X connect 6 0 8 0;
#X connect 7 0 3 0;
#X connect 8 0 4 0;
#X connect 9 0 2 0;
#X connect 11 0 1 0;
#X restore 29 458 pd lowpass2;
#X obj 99 226 mtof;
#X obj 360 195 mtof;
#N canvas 0 24 450 300 lowpass2 0;
#X obj 150 142 vsl 15 120 10 3000 0 0 empty empty empty 0 -9 0 10 -262144
-1 -1 1950 1;
#X obj 343 124 line;
#X obj 378 69 bng 15 250 50 0 empty empty empty 17 7 0 10 -262144 -1
-1;
#X obj 96 244 outlet~;
#X obj 173 246 outlet~;
#X obj 104 103 inlet~;
#X obj 175 102 inlet~;
#X obj 104 182 lop~;
#X obj 175 180 lop~;
#X obj 305 41 loadbang;
#X floatatom 157 278 5 0 0 0 - - -;
#X msg 377 97 500 200;
#X connect 0 0 7 1;
#X connect 0 0 8 1;
#X connect 0 0 10 0;
#X connect 1 0 0 0;
#X connect 2 0 11 0;
#X connect 5 0 7 0;
#X connect 6 0 8 0;
#X connect 7 0 3 0;
#X connect 8 0 4 0;
#X connect 9 0 2 0;
#X connect 11 0 1 0;
#X restore 349 470 pd lowpass2;
#X obj 162 623 *~;
#X obj 288 634 *~;
#X msg 230 507 0;
#X obj 48 291 osc~;
#X obj 417 214 osc~;
#X obj 61 253 * 2;
#X obj 73 340 *~ 0.4;
#X obj 454 237 *~ 0.4;
#X msg 169 252 0 \, 1 150 \, 0.3 150 5 \, 0 1000 300;
#X msg 528 62 0 \, 1 3 \, 0.3 50 5 \, 0 450 20;
#X msg 496 267 0 \, 1 150 \, 0.3 150 5 \, 0 1000 300;
#X obj 155 707 outlet~ L;
#X obj 322 707 outlet~ R;
#X msg 187 168 \$1;
#X obj 199 127 inlet;
#X msg 185 508 1;
#X obj 182 457 loadbang;
#X floatatom 151 137 5 0 0 0 - - -;
#X connect 0 0 5 0;
#X connect 1 0 8 0;
#X connect 2 0 1 1;
#X connect 3 0 11 0;
#X connect 4 0 3 1;
#X connect 5 0 6 0;
#X connect 6 0 3 0;
#X connect 7 0 1 0;
#X connect 8 0 12 0;
#X connect 9 0 7 0;
#X connect 9 0 17 0;
#X connect 10 0 0 0;
#X connect 10 0 16 0;
#X connect 11 0 13 0;
#X connect 12 0 23 0;
#X connect 13 0 24 0;
#X connect 14 0 13 1;
#X connect 14 0 12 1;
#X connect 15 0 18 0;
#X connect 16 0 19 0;
#X connect 17 0 15 0;
#X connect 18 0 1 0;
#X connect 19 0 3 0;
#X connect 20 0 2 0;
#X connect 22 0 4 0;
#X connect 25 0 9 0;
#X connect 25 0 20 0;
#X connect 25 0 10 0;
#X connect 25 0 22 0;
#X connect 26 0 25 0;
#X connect 27 0 12 1;
#X connect 27 0 13 1;
#X connect 28 0 27 0;
#X connect 29 0 25 0;
#X restore 280 197 pd note 3;
#N canvas 786 176 809 720 note 0;
#X floatatom 359 264 5 0 0 0 - - -;
#X obj 124 364 *~;
#X obj 163 319 vline~;
#X obj 364 398 *~;
#X obj 501 302 vline~;
#X obj 358 293 + 0.1;
#X obj 359 328 phasor~;
#X obj 107 291 phasor~;
#N canvas 0 24 450 300 lowpass2 0;
#X obj 150 142 vsl 15 120 10 3000 0 0 empty empty empty 0 -9 0 10 -262144
-1 -1 1871 1;
#X obj 343 124 line;
#X obj 378 69 bng 15 250 50 0 empty empty empty 17 7 0 10 -262144 -1
-1;
#X obj 96 244 outlet~;
#X obj 173 246 outlet~;
#X obj 104 103 inlet~;
#X obj 175 102 inlet~;
#X obj 104 182 lop~;
#X obj 175 180 lop~;
#X obj 305 41 loadbang;
#X floatatom 157 278 5 0 0 0 - - -;
#X msg 378 97 480 200;
#X connect 0 0 7 1;
#X connect 0 0 8 1;
#X connect 0 0 10 0;
#X connect 1 0 0 0;
#X connect 2 0 11 0;
#X connect 5 0 7 0;
#X connect 6 0 8 0;
#X connect 7 0 3 0;
#X connect 8 0 4 0;
#X connect 9 0 2 0;
#X connect 11 0 1 0;
#X restore 29 458 pd lowpass2;
#X obj 99 226 mtof;
#X obj 360 195 mtof;
#N canvas 0 24 450 300 lowpass2 0;
#X obj 150 142 vsl 15 120 10 3000 0 0 empty empty empty 0 -9 0 10 -262144
-1 -1 1950 1;
#X obj 343 124 line;
#X obj 378 69 bng 15 250 50 0 empty empty empty 17 7 0 10 -262144 -1
-1;
#X obj 96 244 outlet~;
#X obj 173 246 outlet~;
#X obj 104 103 inlet~;
#X obj 175 102 inlet~;
#X obj 104 182 lop~;
#X obj 175 180 lop~;
#X obj 305 41 loadbang;
#X floatatom 157 278 5 0 0 0 - - -;
#X msg 377 97 500 200;
#X connect 0 0 7 1;
#X connect 0 0 8 1;
#X connect 0 0 10 0;
#X connect 1 0 0 0;
#X connect 2 0 11 0;
#X connect 5 0 7 0;
#X connect 6 0 8 0;
#X connect 7 0 3 0;
#X connect 8 0 4 0;
#X connect 9 0 2 0;
#X connect 11 0 1 0;
#X restore 349 470 pd lowpass2;
#X obj 162 623 *~;
#X obj 288 634 *~;
#X msg 230 507 0;
#X obj 48 291 osc~;
#X obj 417 214 osc~;
#X obj 61 253 * 2;
#X obj 73 340 *~ 0.4;
#X obj 454 237 *~ 0.4;
#X msg 169 252 0 \, 1 150 \, 0.3 150 5 \, 0 1000 300;
#X msg 528 62 0 \, 1 3 \, 0.3 50 5 \, 0 450 20;
#X msg 496 267 0 \, 1 150 \, 0.3 150 5 \, 0 1000 300;
#X obj 155 707 outlet~ L;
#X obj 322 707 outlet~ R;
#X msg 187 168 \$1;
#X obj 199 127 inlet;
#X msg 185 508 1;
#X obj 182 457 loadbang;
#X floatatom 151 137 5 0 0 0 - - -;
#X connect 0 0 5 0;
#X connect 1 0 8 0;
#X connect 2 0 1 1;
#X connect 3 0 11 0;
#X connect 4 0 3 1;
#X connect 5 0 6 0;
#X connect 6 0 3 0;
#X connect 7 0 1 0;
#X connect 8 0 12 0;
#X connect 9 0 7 0;
#X connect 9 0 17 0;
#X connect 10 0 0 0;
#X connect 10 0 16 0;
#X connect 11 0 13 0;
#X connect 12 0 23 0;
#X connect 13 0 24 0;
#X connect 14 0 13 1;
#X connect 14 0 12 1;
#X connect 15 0 18 0;
#X connect 16 0 19 0;
#X connect 17 0 15 0;
#X connect 18 0 1 0;
#X connect 19 0 3 0;
#X connect 20 0 2 0;
#X connect 22 0 4 0;
#X connect 25 0 9 0;
#X connect 25 0 20 0;
#X connect 25 0 10 0;
#X connect 25 0 22 0;
#X connect 26 0 25 0;
#X connect 27 0 12 1;
#X connect 27 0 13 1;
#X connect 28 0 27 0;
#X connect 29 0 25 0;
#X restore 367 199 pd note 4;
#X text -66 17 Tiny Chordsynth. Change the notes!;
#X text 390 98 Change it up;
#X obj 207 305 outlet~ L;
#X obj 293 305 outlet~ R;
#X obj 170 19 inlet;
#X text 473 330 pip;
#X obj 170 62 unpack f f f f;
#X floatatom 65 101 5 0 0 0 - - -;
#X floatatom 153 97 5 0 0 0 - - -;
#X floatatom 268 103 5 0 0 0 - - -;
#X floatatom 341 105 5 0 0 0 - - -;
#X connect 0 0 6 0;
#X connect 0 1 7 0;
#X connect 1 0 6 0;
#X connect 1 1 7 0;
#X connect 2 0 6 0;
#X connect 2 1 7 0;
#X connect 3 0 6 0;
#X connect 3 1 7 0;
#X connect 8 0 10 0;
#X connect 10 0 11 0;
#X connect 10 1 12 0;
#X connect 10 2 13 0;
#X connect 10 3 14 0;
#X connect 11 0 0 0;
#X connect 12 0 1 0;
#X connect 13 0 2 0;
#X connect 14 0 3 0;
