#N canvas 361 320 742 510 10;
#X obj 38 431 dac~;
#X obj 108 23 tgl 30 0 empty empty Start 35 15 0 10 -262144 -1 -1 0
1;
#X obj 522 99 table pianophase;
#X obj 93 236 tabread pianophase;
#X floatatom 57 176 5 0 0 0 - - -;
#X obj 293 236 tabread pianophase;
#X floatatom 391 179 5 0 0 0 - - -;
#X obj 481 57 s vol;
#X obj 521 27 loadbang;
#X obj 99 105 metro 230;
#X obj 305 104 metro 228;
#X obj 304 156 pip_counter_mod 5;
#X obj 99 155 pip_counter_mod 5;
#X obj 143 433 outlet~;
#X obj 263 432 outlet~;
#X msg 522 55 \; pianophase 0 63 67 70 72 67;
#X text 34 455 Test DAC;
#X obj 430 173 vradio 15 1 0 5 empty empty empty 0 -8 0 10 -262144
-1 -1 0;
#X obj 33 172 vradio 15 1 0 5 empty empty empty 0 -8 0 10 -262144 -1
-1 0;
#N canvas 1076 352 573 503 simple 0;
#X obj 64 54 inlet;
#X obj 273 51 inlet;
#X obj 101 203 mtof;
#X obj 101 230 osc~;
#X obj 150 336 *~;
#X msg 177 205 0;
#X msg 198 231 0.5;
#X obj 306 203 mtof;
#X msg 385 233 0;
#X msg 406 259 0.5;
#X obj 437 233 r vol;
#X obj 240 204 r vol;
#X floatatom 304 226 5 0 0 0 - - -;
#X obj 303 255 + 0.3;
#X obj 304 290 osc~;
#X obj 343 334 *~;
#X obj 147 401 outlet~;
#X obj 315 401 outlet~;
#X obj 380 105 r off;
#X obj 361 142 sel 0;
#X connect 0 0 2 0;
#X connect 1 0 7 0;
#X connect 2 0 3 0;
#X connect 3 0 4 0;
#X connect 4 0 16 0;
#X connect 5 0 4 1;
#X connect 6 0 4 1;
#X connect 7 0 12 0;
#X connect 8 0 15 1;
#X connect 9 0 15 1;
#X connect 10 0 9 0;
#X connect 11 0 6 0;
#X connect 12 0 13 0;
#X connect 13 0 14 0;
#X connect 14 0 15 0;
#X connect 15 0 17 0;
#X connect 18 0 19 0;
#X connect 19 0 8 0;
#X connect 19 0 5 0;
#X connect 19 1 9 0;
#X connect 19 1 6 0;
#X restore 148 295 pd simple oscillators;
#X obj 218 105 s off;
#X text 523 119 Melody storage- try out many!;
#X obj 108 1 inlet;
#X text 146 0 Trigger;
#X obj 239 3 inlet;
#X floatatom 239 28 5 0 0 0 - - -;
#X obj 296 59 - 2;
#X text 278 2 Tempo;
#X text 677 462 pip;
#X text 17 -36 Pip Phase;
#X text 81 -39 Steve Reich Style Phase player. Insert a melody and
play with the tempo;
#X connect 1 0 9 0;
#X connect 1 0 10 0;
#X connect 1 0 20 0;
#X connect 3 0 19 0;
#X connect 5 0 19 1;
#X connect 8 0 15 0;
#X connect 8 0 7 0;
#X connect 9 0 12 0;
#X connect 10 0 11 0;
#X connect 11 0 5 0;
#X connect 11 0 6 0;
#X connect 11 0 17 0;
#X connect 12 0 3 0;
#X connect 12 0 4 0;
#X connect 12 0 18 0;
#X connect 19 0 0 0;
#X connect 19 0 0 1;
#X connect 19 0 13 0;
#X connect 19 0 14 0;
#X connect 19 1 0 1;
#X connect 19 1 0 0;
#X connect 19 1 14 0;
#X connect 19 1 13 0;
#X connect 22 0 1 0;
#X connect 24 0 25 0;
#X connect 25 0 26 0;
#X connect 25 0 9 1;
#X connect 26 0 10 1;
