#N canvas 359 22 648 525 10;
#X text 487 335 pip;
#X obj 159 142 pip_wolkensynth;
#X obj 310 299 dac~;
#X msg 175 94 60;
#X obj 254 -30 vsl 15 128 0 5000 0 0 empty empty empty 0 -9 0 10 -262144
-1 -1 500 1;
#X text 274 12 Ringmod Slider in this case 0-5000;
#X text 63 -131 MINI SYNTH - WOLKENSYNTH Help Patch;
#X text 59 -76 Super simple little synth;
#X text 89 98 Midi notes;
#X text 264 145 ENvelope control inside;
#X connect 1 0 2 0;
#X connect 1 0 2 1;
#X connect 3 0 1 0;
#X connect 4 0 1 1;
