#N canvas 213 180 670 387 10;
#X obj 275 267 dac~;
#N canvas 519 295 942 535 logic 0;
#X obj 32 218 vline~;
#X obj 179 309 *~;
#X msg 103 166 0 1000;
#X obj 172 218 vline~;
#X obj 319 309 *~;
#X msg 243 166 0 1000;
#X obj 330 218 vline~;
#X obj 477 309 *~;
#X msg 401 166 0 1000;
#X obj 486 217 vline~;
#X obj 633 308 *~;
#X msg 557 165 0 1000;
#X obj 173 266 osc~ 880;
#X msg 33 167 0.3 1000;
#X msg 173 167 0.3 1000;
#X msg 331 167 0.3 1000;
#X msg 487 166 0.3 1000;
#X obj 354 267 osc~ 660;
#X obj 512 270 osc~ 220;
#X obj 29 30 r layer1;
#X obj 189 30 r layer2;
#X obj 330 29 r layer3;
#X obj 489 30 r layer4;
#X obj 39 270 osc~ 350;
#X obj 656 217 vline~;
#X msg 727 165 0 1000;
#X msg 657 166 0.3 1000;
#X obj 788 301 *~;
#X obj 222 417 outlet~;
#X obj 667 263 osc~ 600;
#X obj 659 30 r layer5;
#X obj 774 36 r stop;
#X connect 0 0 1 1;
#X connect 1 0 28 0;
#X connect 2 0 0 0;
#X connect 3 0 4 1;
#X connect 4 0 28 0;
#X connect 5 0 3 0;
#X connect 6 0 7 1;
#X connect 7 0 28 0;
#X connect 8 0 6 0;
#X connect 9 0 10 1;
#X connect 10 0 28 0;
#X connect 11 0 9 0;
#X connect 12 0 4 0;
#X connect 13 0 0 0;
#X connect 14 0 3 0;
#X connect 15 0 6 0;
#X connect 16 0 9 0;
#X connect 17 0 7 0;
#X connect 18 0 10 0;
#X connect 19 0 13 0;
#X connect 19 0 5 0;
#X connect 19 0 8 0;
#X connect 19 0 11 0;
#X connect 19 0 25 0;
#X connect 20 0 2 0;
#X connect 20 0 14 0;
#X connect 20 0 8 0;
#X connect 20 0 11 0;
#X connect 20 0 25 0;
#X connect 21 0 15 0;
#X connect 21 0 5 0;
#X connect 21 0 2 0;
#X connect 21 0 11 0;
#X connect 21 0 25 0;
#X connect 22 0 16 0;
#X connect 22 0 25 0;
#X connect 22 0 8 0;
#X connect 22 0 5 0;
#X connect 22 0 2 0;
#X connect 23 0 1 0;
#X connect 24 0 27 1;
#X connect 25 0 24 0;
#X connect 26 0 24 0;
#X connect 27 0 28 0;
#X connect 29 0 27 0;
#X connect 30 0 26 0;
#X connect 30 0 11 0;
#X connect 30 0 8 0;
#X connect 30 0 5 0;
#X connect 30 0 2 0;
#X connect 31 0 25 0;
#X connect 31 0 11 0;
#X connect 31 0 8 0;
#X connect 31 0 5 0;
#X connect 31 0 2 0;
#X restore 270 157 pd logic;
#X obj 265 206 pip_limiter;
#X text 43 309 You can easily swap the oscillators with loops (see
pip_simplesampler) and create state based crossfade layers for interactive
music. Only one layer plays at every moment.;
#X text 25 11 5 Crossfade Layer Interactive Music Machine;
#X obj 133 78 bng 40 250 50 0 layer1 empty Layer_1 -19 -20 0 20 -262144
-1 -1;
#X obj 239 78 bng 40 250 50 0 layer2 empty Layer_2 -19 -20 0 20 -262144
-1 -1;
#X obj 345 78 bng 40 250 50 0 layer3 empty Layer_3 -19 -20 0 20 -262144
-1 -1;
#X obj 445 78 bng 40 250 50 0 layer4 empty Layer_4 -19 -20 0 20 -262144
-1 -1;
#X obj 547 78 bng 40 250 50 0 layer5 empty Layer_5 -19 -20 0 20 -262144
-1 -1;
#X obj 31 77 bng 40 250 50 0 stop empty Stop -2 -20 0 20 -262144 -1
-1;
#X text 432 359 pip;
#X connect 1 0 2 0;
#X connect 1 0 2 1;
#X connect 2 0 0 0;
#X connect 2 1 0 1;
