#N canvas 624 261 637 353 10;
#X obj 13 169 pip_limiter;
#X obj 12 266 dac~;
#X obj 7 55 osc~ 300;
#X obj 38 106 *~;
#X obj 71 267 tabwrite~ limiterdemo;
#X obj 104 213 tgl 15 0 empty empty empty 17 7 0 10 -262144 -1 -1 1
1;
#X obj 104 233 metro 150;
#X obj 107 188 loadbang;
#X obj 97 19 vsl 15 128 0 10 0 0 empty empty empty 0 -9 0 10 -262144
-1 -1 0 1;
#N canvas 0 22 450 278 (subpatch) 0;
#X array limiterdemo 100 float 3;
#A 0 0 0 0 0 0 0 0 0 0 0 0 0 0 0 0 0 0 0 0 0 0 0 0 0 0 0 0 0 0 0 0
0 0 0 0 0 0 0 0 0 0 0 0 0 0 0 0 0 0 0 0 0 0 0 0 0 0 0 0 0 0 0 0 0 0
0 0 0 0 0 0 0 0 0 0 0 0 0 0 0 0 0 0 0 0 0 0 0 0 0 0 0 0 0 0 0 0 0 0
0;
#X coords 0 1 99 -1 200 140 1;
#X restore 229 145 graph;
#X floatatom 114 164 5 0 0 0 - - -;
#X text 120 128 <-- 1 (max!);
#X text 123 73 anything above get ignored;
#X obj 173 9 loadbang;
#X msg 136 27 0;
#X text 243 11 Limiter that prevents ears and speakers to explode.
Aything above 1 in the *~ would be nasty \, this object prevents accidents.
;
#X obj 548 47 pddp/dsp;
#X connect 0 0 1 0;
#X connect 0 1 1 1;
#X connect 0 1 4 0;
#X connect 2 0 3 0;
#X connect 3 0 0 0;
#X connect 3 0 0 1;
#X connect 5 0 6 0;
#X connect 6 0 4 0;
#X connect 7 0 5 0;
#X connect 8 0 3 1;
#X connect 8 0 10 0;
#X connect 13 0 14 0;
#X connect 14 0 8 0;
