#N canvas 244 241 881 415 10;
#X obj 21 237 vu 15 120 empty empty -1 -8 0 10 -66577 -1 1 0;
#X obj 19 182 env~;
#X obj 19 207 - 100;
#X obj 71 260 outlet~ L;
#X obj 182 262 outlet~ R;
#X obj 186 166 catch~ sumR;
#X obj 75 165 catch~ sumL;
#X obj 315 172 vsl 15 128 0 0.7 0 0 empty empty empty 0 -9 0 10 -262144
-1 -1 12700 1;
#X obj 315 310 s vol_1;
#X obj 430 172 vsl 15 128 0 0.7 0 0 empty empty empty 0 -9 0 10 -262144
-1 -1 12700 1;
#X obj 430 310 s vol_2;
#X obj 705 49 loadbang;
#X obj 709 194 mixer_effects;
#N canvas 0 22 450 300 returns 0;
#X obj 77 69 catch~ revretL;
#X obj 229 70 catch~ revretR;
#X obj 133 185 outlet~ L;
#X obj 204 186 outlet~ R;
#X connect 0 0 2 0;
#X connect 1 0 3 0;
#X restore 83 189 pd returns;
#X obj 51 59 inlet~;
#X obj 142 59 inlet~;
#X obj 338 192 vsl 15 50 0 0.7 0 0 empty empty empty 0 -9 0 10 -262144
-1 -1 0 1;
#X obj 338 252 s sendvol_1;
#X obj 276 59 inlet~;
#X obj 353 59 inlet~;
#X obj 458 192 vsl 15 50 0 0.7 0 0 empty empty empty 0 -9 0 10 -262144
-1 -1 0 1;
#X obj 458 252 s sendvol_2;
#X msg 772 75 0;
#X obj 534 59 inlet~;
#X obj 594 59 inlet~;
#X obj 561 172 vsl 15 128 0 0.7 0 0 empty empty empty 0 -9 0 10 -262144
-1 -1 12700 1;
#X obj 589 191 vsl 15 50 0 0.7 0 0 empty empty empty 0 -9 0 10 -262144
-1 -1 0 1;
#X obj 589 251 s sendvol_3;
#X obj 561 310 s vol_3;
#X msg 704 79 0.7;
#X obj 704 102 s volstart;
#X obj 772 102 s sendstart;
#X obj 315 146 r volstart;
#X obj 338 166 r sendstart;
#X obj 430 146 r volstart;
#X obj 458 166 r sendstart;
#X obj 561 146 r volstart;
#X obj 589 189 r sendstart;
#X obj 18 96 pip_channel vol_1 sendvol_1;
#X text 710 213 Place effects here;
#X text 358 188 Effect Send;
#X text 338 275 Volume;
#X text 703 124 Initial Mixer Settings;
#X floatatom 708 246 5 0 0 1 Delay_time - delaytime;
#X obj 252 96 pip_channel vol_2 sendvol_2;
#X obj 495 96 pip_channel vol_3 sendvol_3;
#X text 24 21 Expandable Mixer with send bus.;
#X text 109 286 To Main DAC~ Remember that a pip_limiter is a good
idea \, always!;
#X text 819 386 pip;
#X connect 1 0 2 0;
#X connect 2 0 0 0;
#X connect 5 0 4 0;
#X connect 5 0 1 0;
#X connect 6 0 3 0;
#X connect 6 0 1 0;
#X connect 7 0 8 0;
#X connect 9 0 10 0;
#X connect 11 0 29 0;
#X connect 11 0 22 0;
#X connect 13 0 3 0;
#X connect 13 1 4 0;
#X connect 14 0 38 0;
#X connect 15 0 38 1;
#X connect 16 0 17 0;
#X connect 18 0 44 0;
#X connect 19 0 44 1;
#X connect 20 0 21 0;
#X connect 22 0 31 0;
#X connect 23 0 45 0;
#X connect 24 0 45 1;
#X connect 25 0 28 0;
#X connect 26 0 27 0;
#X connect 29 0 30 0;
#X connect 32 0 7 0;
#X connect 33 0 16 0;
#X connect 34 0 9 0;
#X connect 35 0 20 0;
#X connect 36 0 25 0;
#X connect 37 0 26 0;
