#N canvas 591 208 356 414 10;
#X obj 80 30 inlet;
#X obj 80 54 bng 15 250 50 0 empty empty empty 17 7 0 10 -262144 -1
-1;
#X obj 179 170 f;
#X obj 163 207 ==;
#X obj 81 271 f;
#X obj 82 298 sel 0;
#X obj 160 299 sel 1;
#X obj 82 328 f;
#X obj 82 375 outlet;
#X obj 89 134 trigger bang float bang float;
#X obj 80 94 random \$1;
#X obj 144 30 inlet;
#X floatatom 140 55 5 0 0 0 - - -;
#X floatatom 156 377 5 0 0 0 - - -;
#X text 184 28 Define number range;
#X text 194 377 Test output;
#X text 27 27 Trigger;
#X text 27 4 Prevents a random number to repeat consecutively.;
#X text 320 390 pip;
#X connect 0 0 1 0;
#X connect 1 0 10 0;
#X connect 2 0 3 0;
#X connect 3 0 4 1;
#X connect 4 0 5 0;
#X connect 4 0 6 0;
#X connect 5 0 7 0;
#X connect 6 0 10 0;
#X connect 7 0 8 0;
#X connect 7 0 13 0;
#X connect 9 0 4 0;
#X connect 9 1 2 1;
#X connect 9 2 2 0;
#X connect 9 3 7 1;
#X connect 9 3 3 1;
#X connect 10 0 9 0;
#X connect 11 0 12 0;
#X connect 12 0 10 1;
