#N canvas 570 333 641 227 10;
#X obj 4 23 tgl 15 0 bpmtrigger empty On/Off 17 7 0 10 -262144 -1 -1
0 1;
#X floatatom 64 21 5 40 250 1 BPM initbpm bpmvalue;
#N canvas 168 452 911 673 metronome 0;
#X obj 128 266 metro;
#X obj 177 167 /;
#X obj 158 78 t b b b;
#X msg 177 134 60000;
#X floatatom 226 134 5 0 0 1 BPM - -;
#X msg 26 231 120;
#X obj 26 203 loadbang;
#X obj 146 36 select 0 1;
#X obj 146 8 r bpmtrigger;
#X msg 107 79 0;
#X obj 26 262 s initbpm;
#X obj 128 311 s metrocheck;
#X obj 327 60 r bpmvalue;
#X obj 332 24 r initbpm;
#X obj 294 281 metro;
#X obj 294 312 s subdivisioncheck;
#X obj 350 122 select 0 1 2;
#X obj 348 92 r subdivisions;
#X obj 383 226 r bpmtrigger;
#X obj 370 254 t;
#X obj 249 202 / \$1;
#X msg 318 162 2;
#X msg 365 163 4;
#X msg 403 163 8;
#X obj 34 79 inlet;
#X obj 128 358 outlet;
#X obj 335 362 outlet;
#X connect 0 0 11 0;
#X connect 0 0 25 0;
#X connect 1 0 20 0;
#X connect 1 0 0 1;
#X connect 2 0 0 0;
#X connect 2 0 14 0;
#X connect 2 1 3 0;
#X connect 2 2 4 0;
#X connect 3 0 1 0;
#X connect 4 0 1 1;
#X connect 5 0 10 0;
#X connect 6 0 5 0;
#X connect 6 0 9 0;
#X connect 7 0 9 0;
#X connect 7 1 2 0;
#X connect 8 0 7 0;
#X connect 9 0 0 0;
#X connect 9 0 14 0;
#X connect 12 0 4 0;
#X connect 12 0 2 0;
#X connect 13 0 4 0;
#X connect 14 0 15 0;
#X connect 14 0 26 0;
#X connect 16 0 21 0;
#X connect 16 1 22 0;
#X connect 16 2 23 0;
#X connect 17 0 16 0;
#X connect 17 0 2 0;
#X connect 18 0 19 0;
#X connect 19 0 14 0;
#X connect 20 0 14 1;
#X connect 21 0 20 1;
#X connect 22 0 20 1;
#X connect 23 0 20 1;
#X connect 24 0 4 0;
#X restore 42 119 pd metronome;
#X obj 44 54 bng 30 250 50 0 empty metrocheck empty 17 7 0 10 -262144
-1 -1;
#X obj 119 54 bng 30 150 20 0 empty subdivisioncheck empty 17 7 0 10
-262144 -1 -1;
#X obj 122 36 hradio 15 1 0 3 subdivisions empty Subdivision 0 -8 0
10 -262144 -1 -1 0;
#X obj 4 -6 inlet;
#X obj 42 93 inlet;
#X obj 115 -5 inlet;
#X obj 24 154 outlet;
#X obj 120 153 outlet;
#X text 228 30 Metronome that also plays subdivisions (eight \, sixteenth
\, 32nd notes) 1st inlet: trigger 2nd: bpm setting 3rd: subdivision
(0 \, 1 \, 2 --> 8th \, 16th \, 32nd) Note: the flashing is rather
odd looking on the subdivisions \, but the actual thing works :D;
#X text 229 154 pip;
#X connect 2 0 9 0;
#X connect 2 1 10 0;
#X connect 6 0 0 0;
#X connect 7 0 2 0;
#X connect 8 0 5 0;
