#N canvas 0 22 450 300 10;
#X floatatom 259 124 5 0 0 0 - - -;
#X obj 138 183 /;
#X obj 138 254 outlet;
#X msg 76 116 1000;
#X obj 148 17 inlet;
#X obj 148 41 t b f;
#X text 309 122 converts ms to hz;
#X text 368 265 pip;
#X connect 0 0 1 1;
#X connect 1 0 2 0;
#X connect 3 0 1 0;
#X connect 4 0 5 0;
#X connect 5 0 3 0;
#X connect 5 1 0 0;
