#N canvas 473 296 651 382 10;
#X text -12 8 4 Additive Layer Interactive Music Machine;
#N canvas 684 430 942 535 logic 0;
#X obj 32 218 vline~;
#X obj 179 309 *~;
#X msg 103 166 0 1000;
#X obj 172 218 vline~;
#X obj 319 309 *~;
#X msg 243 166 0 1000;
#X obj 330 218 vline~;
#X obj 477 309 *~;
#X msg 401 166 0 1000;
#X obj 486 217 vline~;
#X obj 633 308 *~;
#X msg 557 165 0 1000;
#X obj 173 266 osc~ 880;
#X msg 33 167 0.3 1000;
#X msg 173 167 0.3 1000;
#X msg 331 167 0.3 1000;
#X msg 487 166 0.3 1000;
#X obj 354 267 osc~ 660;
#X obj 512 270 osc~ 220;
#X obj 29 30 r layer1;
#X obj 189 30 r layer2;
#X obj 330 29 r layer3;
#X obj 489 30 r layer4;
#X obj 29 55 sel 1 0;
#X obj 189 53 sel 1 0;
#X obj 331 54 sel 1 0;
#X obj 489 55 sel 1 0;
#X obj 39 270 osc~ 350;
#X obj 656 217 vline~;
#X msg 727 165 0 1000;
#X msg 657 166 0.3 1000;
#X obj 659 55 sel 1 0;
#X obj 788 301 *~;
#X obj 222 417 outlet~;
#X obj 667 263 osc~ 600;
#X obj 659 30 r layer5;
#X connect 0 0 1 1;
#X connect 1 0 33 0;
#X connect 2 0 0 0;
#X connect 3 0 4 1;
#X connect 4 0 33 0;
#X connect 5 0 3 0;
#X connect 6 0 7 1;
#X connect 7 0 33 0;
#X connect 8 0 6 0;
#X connect 9 0 10 1;
#X connect 10 0 33 0;
#X connect 11 0 9 0;
#X connect 12 0 4 0;
#X connect 13 0 0 0;
#X connect 14 0 3 0;
#X connect 15 0 6 0;
#X connect 16 0 9 0;
#X connect 17 0 7 0;
#X connect 18 0 10 0;
#X connect 19 0 23 0;
#X connect 20 0 24 0;
#X connect 21 0 25 0;
#X connect 22 0 26 0;
#X connect 23 0 13 0;
#X connect 23 1 2 0;
#X connect 24 0 14 0;
#X connect 24 1 5 0;
#X connect 25 0 15 0;
#X connect 25 1 8 0;
#X connect 26 0 16 0;
#X connect 26 1 11 0;
#X connect 27 0 1 0;
#X connect 28 0 32 1;
#X connect 29 0 28 0;
#X connect 30 0 28 0;
#X connect 31 0 30 0;
#X connect 31 1 29 0;
#X connect 32 0 33 0;
#X connect 34 0 32 0;
#X connect 35 0 31 0;
#X restore 190 147 pd logic;
#X obj 12 62 tgl 40 0 layer1 l1 Layer_1 -19 -20 0 20 -262144 -1 -1
0 1;
#X obj 124 62 tgl 40 0 layer2 l2 Layer_2 -19 -20 0 20 -262144 -1 -1
0 1;
#X obj 229 62 tgl 40 0 layer3 l3 Layer_3 -19 -20 0 20 -262144 -1 -1
0 1;
#X obj 337 62 tgl 40 0 layer4 l4 Layer_4 -19 -20 0 20 -262144 -1 -1
0 1;
#X obj 185 196 pip_limiter;
#X text -37 299 You can easily swap the oscillators with loops (see
pip_simplesampler) and create state based additive layers for interactive
music. Each layer can play at any time.;
#X obj 446 61 tgl 40 0 layer5 l5 Layer_5 -19 -20 0 20 -262144 -1 -1
0 1;
#X obj 155 248 outlet~ L;
#X obj 254 247 outlet~ R;
#X obj -6 141 inlet layer;
#N canvas 502 460 302 214 chooser 1;
#X obj 37 19 inlet;
#X obj 20 156 s l1;
#X floatatom 29 70 5 0 0 0 - - -;
#X obj 64 156 s l2;
#X obj 105 155 s l3;
#X obj 146 158 s l4;
#X obj 185 158 s l5;
#X obj 27 113 select 1 2 3 4 5;
#X connect 0 0 2 0;
#X connect 2 0 7 0;
#X connect 7 0 1 0;
#X connect 7 1 3 0;
#X connect 7 2 4 0;
#X connect 7 3 5 0;
#X connect 7 4 6 0;
#X restore -6 167 pd chooser;
#X connect 1 0 6 0;
#X connect 1 0 6 1;
#X connect 6 0 9 0;
#X connect 6 1 10 0;
#X connect 11 0 12 0;
