#N canvas 624 261 379 422 10;
#X obj 86 322 *~;
#X obj 121 80 env~;
#X obj 121 102 dbtorms;
#X obj 86 57 inlet~;
#X obj 83 348 outlet~;
#X obj 230 320 *~;
#X obj 230 55 inlet~;
#X obj 227 346 outlet~;
#X msg 130 178 1 \$1;
#X obj 132 205 /;
#X obj 121 238 min 1;
#X obj 124 141 + 0.5;
#X obj 117 272 lop~ 5;
#X floatatom 266 160 5 0 0 0 - - -;
#X text 128 16 Simple Limiter;
#X text 299 393 pip;
#X connect 0 0 4 0;
#X connect 1 0 2 0;
#X connect 2 0 11 0;
#X connect 2 0 13 0;
#X connect 3 0 1 0;
#X connect 3 0 0 0;
#X connect 5 0 7 0;
#X connect 6 0 5 0;
#X connect 6 0 1 0;
#X connect 8 0 9 0;
#X connect 9 0 10 0;
#X connect 10 0 12 0;
#X connect 11 0 8 0;
#X connect 12 0 0 1;
#X connect 12 0 5 1;
