#N canvas 804 321 500 222 10;
#X obj 71 -71 f;
#X obj 142 -72 + 1;
#X obj 71 -137 inlet;
#X obj 73 16 outlet;
#X obj 219 -134 inlet;
#X obj 76 -29 mod \$1;
#X text 132 -30 insert number directly in object;
#X text 340 44 pip;
#X msg 182 -105 0;
#X connect 0 0 1 0;
#X connect 0 0 5 0;
#X connect 1 0 0 1;
#X connect 2 0 0 0;
#X connect 4 0 8 0;
#X connect 5 0 3 0;
#X connect 8 0 0 0;
