#N canvas 948 410 480 384 10;
#X obj -10393 41 inlet;
#X obj -10341 42 inlet;
#X obj -10295 43 inlet;
#X obj -10239 42 inlet;
#X obj -10180 45 inlet;
#X floatatom -10341 101 5 0 0 0 - - -;
#X floatatom -10295 99 5 0 0 0 - - -;
#X floatatom -10239 103 5 0 0 0 - - -;
#X floatatom -10180 102 5 0 0 0 - - -;
#X floatatom -10393 103 5 0 0 0 - - -;
#X floatatom -10294 211 5 0 0 0 - - -;
#X obj -10418 178 expr $f4 + (($f5 - $f4) * (($f1 - $f2) / ($f3 - $f2)))
;
#X obj -10226 242 clip;
#X floatatom -10226 269 5 0 0 0 - - -;
#X obj -10226 297 outlet;
#X text -10349 24 s_min;
#X text -10295 22 s_max;
#X text -10240 25 d_min;
#X text -10180 26 d_max;
#X text -10413 21 input;
#X text -10389 332 convert a range of numbers to another range keeping
relationships;
#X text -10022 360 pip;
#X connect 0 0 9 0;
#X connect 1 0 5 0;
#X connect 2 0 6 0;
#X connect 3 0 7 0;
#X connect 4 0 8 0;
#X connect 5 0 11 1;
#X connect 6 0 11 2;
#X connect 7 0 11 3;
#X connect 7 0 12 1;
#X connect 8 0 11 4;
#X connect 8 0 12 2;
#X connect 9 0 11 0;
#X connect 10 0 12 0;
#X connect 11 0 10 0;
#X connect 12 0 13 0;
#X connect 13 0 14 0;
