#N canvas 145 117 663 528 10;
#N canvas 15 98 781 670 presets 0;
#X obj -1 30 inlet;
#X obj -1 68 route default large large_noexcursion huge huge_noexcursion
tadada;
#X obj -1 587 s \$0-GUI;
#X msg -1 134 predelay 0 \, bandwidth 22050 \, damping 22050 \, decay
0.5 \, input_diffusion1 0.75 \, input_diffusion2 0.625 \, decay_diffusion1
0.7 \, decay_diffusion2 0.5 \, excursion 0.53761 \;;
#X msg 135 274 predelay 0 \, bandwidth 10000 \, damping 4637 \, decay
0.98 \, input_diffusion1 0.685 \, input_diffusion2 0.779 \, decay_diffusion1
0.74 \, decay_diffusion2 0.68 \, excursion 0 \,;
#X msg 67 197 predelay 0 \, bandwidth 10000 \, damping 4637 \, decay
0.98 \, input_diffusion1 0.685 \, input_diffusion2 0.779 \, decay_diffusion1
0.74 \, decay_diffusion2 0.68 \, excursion 0.53761 \,;
#X msg 206 350 predelay 10 \, bandwidth 10000 \, damping 4637 \, decay
0.99 \, input_diffusion1 0.685 \, input_diffusion2 0.779 \, decay_diffusion1
0.889 \, decay_diffusion2 0.84 \, excursion 0.53761 \;;
#X msg 340 525 predelay 216.535 \, bandwidth 22050 \, damping 22050
\, decay 0.677165 \, input_diffusion1 0.850394 \, input_diffusion2
0.92126 \, decay_diffusion1 0.80315 \, decay_diffusion2 0.818898 \,
excursion 0.11811 \;;
#X msg 272 437 predelay 10 \, bandwidth 10000 \, damping 4637 \, decay
0.99 \, input_diffusion1 0.685 \, input_diffusion2 0.779 \, decay_diffusion1
0.889 \, decay_diffusion2 0.84 \, excursion 0 \;;
#X connect 0 0 1 0;
#X connect 1 0 3 0;
#X connect 1 1 5 0;
#X connect 1 2 4 0;
#X connect 1 3 6 0;
#X connect 1 4 8 0;
#X connect 1 5 7 0;
#X connect 3 0 2 0;
#X connect 4 0 2 0;
#X connect 5 0 2 0;
#X connect 6 0 2 0;
#X connect 7 0 2 0;
#X connect 8 0 2 0;
#X restore 425 96 pd presets;
#X msg 425 -46 default;
#X msg 425 23 huge;
#X msg 425 46 huge_noexcursion;
#X msg 425 -23 large;
#X msg 425 0 large_noexcursion;
#X msg 425 69 tadada;
#X obj 219 116 hsl 128 15 0 1 0 0 empty empty empty -2 -8 0 10 -262144
-1 -1 0 1;
#X msg 216 135 dry \$1;
#X obj 45 172 e_platereverb somename;
#X obj 216 60 loadbang;
#X msg 238 163 save;
#X obj 196 206 u_cocollect;
#X msg 196 236 dry 0.33 \, decay_diffusion2 0.68 \, decay_diffusion1
0.74 \, input_diffusion2 0.779 \, excursion 0 \, input_diffusion1 0.685
\, decay 0.98 \, damping 4637 \, bandwidth 10000 \, predelay 0 \,;
#X obj 238 183 t a b;
#X text 165 342 RjDj Library (https://github.com/rjdj/rjlib) - 2011
;
#X text 421 -72 Presets;
#X obj 196 36 r \$0-CTL;
#N canvas 0 22 622 572 Parameter 0;
#X obj 201 466 s \$0-CTL;
#X text 251 5 GUI;
#X text 385 6 No-GUI;
#X obj 201 105 g_hsl predelay 0 250;
#X obj 201 145 g_hsl bandwidth 220.05 22050;
#X obj 201 185 g_hsl damping 220.5 22050;
#X obj 201 225 g_hsl decay 0 1;
#X obj 201 428 g_hsl excursion 0 5;
#X msg 369 432 excursion \$1;
#X msg 369 110 predelay \$1;
#X msg 369 149 bandwidth \$1;
#X msg 369 190 damping \$1;
#X msg 369 229 decay \$1;
#X msg 369 272 input_diffusion1 \$1;
#X msg 369 302 input_diffusion2 \$1;
#X msg 369 352 decay_diffusion1 \$1;
#X msg 369 381 decay_diffusion2 \$1;
#X obj 201 268 g_hsl input_diffusion1 0 1;
#X obj 201 298 g_hsl input_diffusion2 0 1;
#X obj 201 348 g_hsl decay_diffusion1 0 1;
#X obj 201 378 g_hsl decay_diffusion2 0 1;
#X text 81 288 Input Diffusion;
#X text 151 230 Decay;
#X text 137 191 Damping;
#X text 47 150 Bandwidth (frequency);
#X text 134 109 Predelay;
#X text 81 367 Decay Diffusion;
#X text 123 433 Excursion;
#X obj 201 29 r \$0-GUI;
#X obj 201 61 g_hsl dry 0 1;
#X text 111 66 Wet/Dry Mix;
#X msg 369 66 dry \$1;
#X connect 3 0 4 0;
#X connect 4 0 5 0;
#X connect 5 0 6 0;
#X connect 6 0 17 0;
#X connect 7 0 0 0;
#X connect 17 0 18 0;
#X connect 18 0 19 0;
#X connect 19 0 20 0;
#X connect 20 0 7 0;
#X connect 28 0 29 0;
#X connect 29 0 3 0;
#X restore 426 -112 pd Parameter Controls;
#X obj 42 44 inlet~ L;
#X obj 105 47 inlet~ R;
#X obj 28 252 outlet~ L;
#X obj 111 257 outlet~ R;
#X msg 216 91 0;
#X obj 311 25 r reverbpresets;
#X obj 353 -63 loadbang;
#X connect 1 0 0 0;
#X connect 2 0 0 0;
#X connect 3 0 0 0;
#X connect 4 0 0 0;
#X connect 5 0 0 0;
#X connect 6 0 0 0;
#X connect 7 0 8 0;
#X connect 8 0 9 2;
#X connect 9 0 21 0;
#X connect 9 1 22 0;
#X connect 9 2 12 0;
#X connect 10 0 23 0;
#X connect 11 0 14 0;
#X connect 12 0 13 0;
#X connect 14 0 9 2;
#X connect 14 1 12 1;
#X connect 17 0 9 2;
#X connect 19 0 9 0;
#X connect 20 0 9 1;
#X connect 23 0 7 0;
#X connect 24 0 0 0;
#X connect 25 0 1 0;
